<svg width="40" height="40" viewBox="0 0 40 40" fill="none" xmlns="http://www.w3.org/2000/svg">
<path d="M35.7321 7.65131H36.968C37.3991 7.65131 37.7487 7.30169 37.7487 6.87057C37.7487 6.43945 37.3991 6.08983 36.968 6.08983H34.0012C33.5701 6.08983 33.2205 6.43945 33.2205 6.87057V9.83737C33.2205 10.2685 33.5701 10.6181 34.0012 10.6181C34.4323 10.6181 34.7819 10.2685 34.7819 9.83737V8.97833C37.1509 12.1498 38.4385 15.9978 38.4385 20C38.4385 30.1671 30.1671 38.4385 20 38.4385C9.83292 38.4385 1.56148 30.1671 1.56148 20C1.56148 9.83292 9.83292 1.56148 20 1.56148C20.7519 1.56148 21.5087 1.60715 22.2495 1.69717C22.6769 1.74885 23.0667 1.44444 23.1187 1.01636C23.1708 0.588364 22.866 0.199088 22.4379 0.147091C21.6349 0.0494988 20.8147 0 20 0C14.6578 0 9.63532 2.08035 5.85787 5.85787C2.08035 9.63532 0 14.6578 0 20C0 25.3422 2.08035 30.3647 5.85787 34.1421C9.63532 37.9196 14.6578 40 20 40C25.3422 40 30.3647 37.9196 34.1421 34.1421C37.9196 30.3647 40 25.3422 40 20C40 15.4919 38.494 11.1642 35.7321 7.65131Z" fill="#F2C94C"/>
<path d="M8.46895 11.7902C8.10458 11.5595 7.62232 11.668 7.39161 12.0322C5.60926 14.8472 4.82025 18.2326 5.16994 21.5649C5.52479 24.9466 7.04684 28.1356 9.45572 30.5446C12.3628 33.4516 16.1815 34.9052 20.0002 34.9052C23.819 34.9052 27.6375 33.4517 30.5447 30.5446C36.3589 24.7303 36.3589 15.2698 30.5447 9.45567C28.1395 7.05053 24.9557 5.52903 21.5796 5.17145C18.2535 4.81895 14.8718 5.60179 12.0579 7.37539C11.6931 7.60532 11.5839 8.08743 11.8137 8.45219C12.0436 8.81703 12.5257 8.92625 12.8905 8.6964C18.1947 5.35328 25.0001 6.11942 29.4405 10.5598C34.6459 15.7652 34.6459 24.2349 29.4405 29.4404C24.2352 34.6458 15.7653 34.6458 10.5599 29.4404C6.18092 25.0614 5.40331 18.0915 8.71098 12.8676C8.94153 12.5032 8.83324 12.0209 8.46895 11.7902Z" fill="#F2C94C"/>
<path d="M30.1499 20.7934H31.1127C31.5438 20.7934 31.8934 20.4438 31.8934 20.0126C31.8934 19.5815 31.5438 19.2319 31.1127 19.2319H30.1499C29.7188 19.2319 29.3691 19.5815 29.3691 20.0126C29.3691 20.4438 29.7187 20.7934 30.1499 20.7934Z" fill="#F2C94C"/>
<path d="M8.10693 19.9873C8.10693 20.4185 8.45655 20.7681 8.88767 20.7681H9.85047C10.2816 20.7681 10.6312 20.4185 10.6312 19.9873C10.6312 19.5562 10.2816 19.2066 9.85047 19.2066H8.88767C8.45655 19.2066 8.10693 19.5562 8.10693 19.9873Z" fill="#F2C94C"/>
<path d="M20.7934 9.85033V8.88753C20.7934 8.4564 20.4438 8.10679 20.0127 8.10679C19.5815 8.10679 19.2319 8.4564 19.2319 8.88753V9.85033C19.2319 10.2815 19.5815 10.6311 20.0127 10.6311C20.4438 10.6311 20.7934 10.2815 20.7934 9.85033Z" fill="#F2C94C"/>
<path d="M19.2065 30.1497V31.1125C19.2065 31.5436 19.5562 31.8932 19.9873 31.8932C20.4184 31.8932 20.768 31.5436 20.768 31.1125V30.1497C20.768 29.7185 20.4184 29.3689 19.9873 29.3689C19.5562 29.3689 19.2065 29.7185 19.2065 30.1497Z" fill="#F2C94C"/>
<path d="M16.0868 14.9824C15.7818 14.6776 15.2876 14.6776 14.9826 14.9824C14.6777 15.2873 14.6777 15.7817 14.9826 16.0866L17.6286 18.7326C17.4258 19.1105 17.3105 19.542 17.3105 20C17.3105 21.4831 18.517 22.6896 20.0001 22.6896C21.4832 22.6896 22.6898 21.4831 22.6898 20C22.6898 19.542 22.5744 19.1105 22.3717 18.7326L27.7106 13.3937C28.0155 13.0888 28.0155 12.5945 27.7106 12.2895C27.4057 11.9847 26.9115 11.9847 26.6064 12.2895L21.2675 17.6284C20.8896 17.4257 20.4581 17.3104 20.0001 17.3104C19.5422 17.3104 19.1106 17.4258 18.7328 17.6284L16.0868 14.9824ZM21.1283 20C21.1283 20.6221 20.6222 21.1282 20.0001 21.1282C19.378 21.1282 18.872 20.6221 18.872 20C18.872 19.3779 19.378 18.8718 20.0001 18.8718C20.6222 18.8718 21.1283 19.3779 21.1283 20Z" fill="#F2C94C"/>
<path d="M10.5593 10.5593C10.7053 10.4141 10.7887 10.2127 10.7887 10.0073C10.7887 9.80201 10.7053 9.60136 10.5593 9.45536C10.4141 9.31023 10.2133 9.22661 10.0073 9.22661C9.80196 9.22661 9.60053 9.31015 9.45532 9.45536C9.31018 9.60058 9.22656 9.80201 9.22656 10.0073C9.22656 10.2135 9.3101 10.4141 9.45532 10.5593C9.60053 10.7045 9.80196 10.7881 10.0073 10.7881C10.2133 10.7881 10.4141 10.7045 10.5593 10.5593Z" fill="#F2C94C"/>
<path d="M25.4082 2.33269C25.6144 2.33269 25.8158 2.24986 25.9609 2.10394C26.1062 1.95872 26.1898 1.75799 26.1898 1.55195C26.1898 1.34662 26.1062 1.14519 25.9609 0.999973C25.8158 0.854834 25.6144 0.771217 25.4082 0.771217C25.2028 0.771217 25.0014 0.854756 24.8563 0.999973C24.7111 1.14519 24.6274 1.34662 24.6274 1.55195C24.6274 1.75807 24.711 1.95872 24.8563 2.10394C25.0014 2.24986 25.2028 2.33269 25.4082 2.33269Z" fill="#F2C94C"/>
</svg>
