<svg width="50" height="50" viewBox="0 0 50 50" fill="none" xmlns="http://www.w3.org/2000/svg">
<path d="M49.4536 35.9921L44.7992 34.298C44.3703 34.1428 43.8971 34.3645 43.7419 34.7934L43.4594 35.5685L38.0674 33.6023C37.932 33.5515 37.7853 33.539 37.643 33.5652L26.4245 35.5463C25.4075 35.7273 24.5341 36.373 24.0616 37.2913L18.9155 35.4141C18.0937 35.1118 17.1843 35.1521 16.3923 35.5258C15.3858 35.9954 14.6824 36.9378 14.5184 38.0361C14.3128 39.6259 15.2544 41.1411 16.7712 41.6606L33.7226 47.8305C33.8129 47.864 33.9089 47.8813 34.0052 47.8809C34.0951 47.8809 34.1842 47.866 34.2692 47.8374L39.0034 46.2392L39.5072 46.4222L39.2247 47.1981C39.0695 47.627 39.2912 48.1006 39.72 48.2558L44.3752 49.9495C44.4651 49.983 44.5606 50.0003 44.6565 49.9999C45.0036 50.0003 45.314 49.7831 45.4325 49.457L49.9498 37.0446C50.1017 36.6169 49.88 36.1469 49.4536 35.9921ZM38.749 44.5846L34.0149 46.1828L17.3355 40.1112C16.564 39.8544 16.0718 39.0983 16.15 38.2885C16.2198 37.7951 16.5084 37.3598 16.9356 37.103C17.3629 36.8467 17.8829 36.7971 18.3508 36.968L23.7069 38.9169C23.7098 39.0692 23.7219 39.2212 23.744 39.3715C24.0677 41.162 25.7735 42.3575 27.5668 42.0504L36.8606 40.4119L36.5732 38.7855L27.2839 40.4244C26.3894 40.5763 25.5381 39.983 25.3712 39.091C25.337 38.9028 25.3382 38.7093 25.3753 38.5215C25.3813 38.494 25.3862 38.4666 25.3894 38.4388C25.4003 38.3683 25.4192 38.2994 25.4462 38.2332C25.649 37.679 26.1311 37.2747 26.7119 37.1707L37.7107 35.2311L42.8951 37.1171L40.0715 44.8768L39.2956 44.5954C39.1199 44.5301 38.9272 44.5261 38.749 44.5846ZM44.1595 48.1187L41.0566 46.9893L45.0088 36.1292L48.1121 37.2582L44.1595 48.1187Z" fill="#F2C94C"/>
<path d="M19.3887 13.3161C19.6552 14.2916 20.1465 15.1912 20.8233 15.9422C20.8108 16.0083 20.8019 16.0748 20.7979 16.1421V20.6376C20.7979 22.0053 21.9064 23.1141 23.2744 23.1141V31.3692C23.2724 31.6836 23.4498 31.9718 23.7307 32.1121L25.3817 32.9376C25.6143 33.0537 25.8876 33.0537 26.1197 32.9376L27.7708 32.1121C28.0521 31.9718 28.2291 31.6836 28.2274 31.3692V23.1141C29.5951 23.1141 30.704 22.0053 30.704 20.6376V16.1421C30.6995 16.0699 30.6903 15.9982 30.6765 15.9273C31.228 15.3206 31.6576 14.6136 31.9422 13.8446C33.1611 14.0493 34.3812 13.4894 35.0213 12.4322C35.8061 11.1339 35.5913 9.46551 34.503 8.40864L27.7849 1.69214C26.7038 0.605444 25.2326 -0.00401092 23.6993 1.98674e-05H15.0194C14.9073 -0.000383211 14.7969 0.0225923 14.6941 0.0669309L9.07558 2.47653H8.41534V0.825524C8.41534 0.369643 8.04571 1.98674e-05 7.58983 1.98674e-05H0.985798C0.529916 1.98674e-05 0.160294 0.369643 0.160294 0.825524V14.0336C0.160294 14.4895 0.529916 14.8591 0.985798 14.8591H7.58983C8.04571 14.8591 8.41534 14.4895 8.41534 14.0336V12.3826H8.53586C9.12677 14.3637 11.7814 15.6846 14.1939 15.6846C16.1952 15.7257 18.107 14.8543 19.3887 13.3161ZM6.76433 13.2081H1.8113V1.65103H6.76433V13.2081ZM26.5764 30.8589L25.7509 31.2716L24.9254 30.8589V23.1141H26.5764V30.8589ZM29.0529 20.6376C29.0529 21.0935 28.6833 21.4631 28.2274 21.4631H23.2744C22.8185 21.4631 22.4489 21.0935 22.4489 20.6376V17.2679C23.004 17.5912 23.6041 17.8306 24.2293 17.9777C24.5147 18.6722 25.2302 19.089 25.9746 18.9947C26.7195 18.9008 27.3088 18.3191 27.4124 17.5754C27.516 16.8322 27.1081 16.1115 26.4176 15.8172C25.7267 15.5234 24.9246 15.7285 24.4607 16.3186C23.9951 16.1965 23.5497 16.0067 23.1398 15.7547C23.9355 15.2723 24.8263 14.9667 25.7509 14.8591C26.936 15.0256 28.0662 15.4649 29.0529 16.1421V20.6376ZM29.6676 14.589C28.4874 13.83 27.1464 13.3572 25.7509 13.2081C24.3579 13.3564 23.0189 13.8284 21.8403 14.5858C21.3368 13.9449 21.0035 13.1871 20.8713 12.3826H24.9254C26.1347 12.3947 27.2488 11.728 27.8095 10.6566L30.1211 12.9679C30.2134 13.0541 30.311 13.1343 30.4133 13.2081C30.2432 13.7067 29.9913 14.1735 29.6676 14.589ZM28.1883 8.70006C28.1114 8.0245 27.8252 7.38966 27.3705 6.88379C29.2376 7.53234 30.5407 9.2285 30.6858 11.1996L28.1883 8.70006ZM18.3214 11.5571C18.3214 12.807 16.2766 14.0336 14.1939 14.0336C12.1112 14.0336 10.0663 12.807 10.0663 11.5571C10.0663 11.1012 9.69672 10.7316 9.24084 10.7316H8.41534V4.12754H9.24084C9.3525 4.12794 9.46334 4.10497 9.56613 4.06063L15.1842 1.65103H23.6952C24.7916 1.647 25.8444 2.08232 26.6175 2.85946L33.334 9.57595C33.877 10.083 33.9991 10.8972 33.6287 11.5414C33.353 11.9779 32.8709 12.2399 32.355 12.2339C32.3417 12.2339 32.3292 12.2339 32.3159 12.2339C32.3409 12.0093 32.3538 11.7832 32.355 11.5571C32.3509 7.91164 29.3964 4.95708 25.7509 4.95305C24.6417 4.95466 23.5509 5.23883 22.5815 5.77855H15.8449V7.42956H24.9254C25.8372 7.42956 26.5764 8.16881 26.5764 9.08057C26.5764 9.99233 25.8372 10.7316 24.9254 10.7316H19.1469C18.691 10.7316 18.3214 11.1012 18.3214 11.5571Z" fill="#F2C94C"/>
</svg>
