<svg width="50" height="50" viewBox="0 0 50 50" fill="none" xmlns="http://www.w3.org/2000/svg">
<path fill-rule="evenodd" clip-rule="evenodd" d="M37.8135 19.0663C37.2741 19.0663 36.8369 19.5035 36.8369 20.0428V44.185H13.1633V42.2317C13.1633 41.6924 12.7261 41.2551 12.1867 41.2551C11.6474 41.2551 11.2101 41.6924 11.2101 42.2317V45.1616C11.2101 45.701 11.6474 46.1382 12.1867 46.1382H37.8135C38.3527 46.1382 38.79 45.701 38.79 45.1616V20.0428C38.79 19.5036 38.3527 19.0663 37.8135 19.0663Z" fill="#F2C94C"/>
<path fill-rule="evenodd" clip-rule="evenodd" d="M41.6751 4.46221H33.039C32.0987 3.62275 30.8598 3.11113 29.503 3.11113H28.9699C28.531 1.32725 26.9176 0 25.0001 0C23.0826 0 21.4691 1.32725 21.0302 3.11123H20.497C19.1402 3.11123 17.9013 3.62275 16.961 4.4623H8.32489C7.78553 4.4623 7.34833 4.89951 7.34833 5.43887V49.0234C7.34833 49.5628 7.78553 50 8.32489 50H41.6752C42.2145 50 42.6517 49.5628 42.6517 49.0234V5.43877C42.6516 4.89941 42.2144 4.46221 41.6751 4.46221ZM21.8888 5.06436C22.4281 5.06436 22.8653 4.62715 22.8653 4.08779C22.8653 2.91074 23.8229 1.95312 25 1.95312C26.1771 1.95312 27.1347 2.91074 27.1347 4.08779C27.1347 4.62715 27.572 5.06436 28.1112 5.06436H29.503C30.4466 5.06436 31.3 5.45547 31.9113 6.0834C31.9196 6.09287 31.9264 6.10322 31.935 6.1124C32.6712 6.88896 32.8621 7.82734 32.8643 8.85869C32.8646 9.00596 32.8659 9.15332 32.8659 9.30049V9.74297H17.1342V9.30049C17.1342 8.11367 17.2026 7.01748 18.0649 6.1124C18.0736 6.10322 18.0805 6.09277 18.0888 6.0834C18.7 5.45547 19.5535 5.06436 20.497 5.06436H21.8888ZM40.6985 48.0469H9.30145V6.41533H15.5773C15.575 6.42119 15.5729 6.42715 15.5706 6.43311C15.3291 7.03203 15.1961 7.67832 15.1836 8.32393H12.1867C11.6474 8.32393 11.2101 8.76113 11.2101 9.30049V34.4193C11.2101 34.9587 11.6474 35.3959 12.1867 35.3959C12.7261 35.3959 13.1633 34.9587 13.1633 34.4193V10.2771H15.181V10.7195C15.181 11.2589 15.6182 11.6961 16.1576 11.6961H33.8426C34.3818 11.6961 34.8191 11.2589 34.8191 10.7195V10.2771H36.8369V12.2304C36.8369 12.7697 37.2741 13.2069 37.8135 13.2069C38.3527 13.2069 38.79 12.7697 38.79 12.2304V9.30049C38.79 8.76113 38.3527 8.32393 37.8135 8.32393H34.8166C34.8041 7.67686 34.6722 7.0293 34.4282 6.42979C34.4262 6.425 34.4246 6.42012 34.4226 6.41543H40.6985V48.0469Z" fill="#F2C94C"/>
<path fill-rule="evenodd" clip-rule="evenodd" d="M25.0001 36.7508C30.2493 36.7508 34.5198 32.4802 34.5198 27.231C34.5198 21.9818 30.2493 17.7113 25.0001 17.7113C19.7509 17.7113 15.4803 21.9818 15.4803 27.231C15.4802 32.4802 19.7509 36.7508 25.0001 36.7508ZM25.0001 19.6644C29.1723 19.6644 32.5667 23.0588 32.5667 27.231C32.5667 31.4034 29.1722 34.7977 25.0001 34.7977C20.8278 34.7977 17.4335 31.4033 17.4335 27.231C17.4334 23.0588 20.8277 19.6644 25.0001 19.6644Z" fill="#F2C94C"/>
<path fill-rule="evenodd" clip-rule="evenodd" d="M23.0147 31.2924C23.2055 31.4832 23.4554 31.5785 23.7053 31.5785C23.9552 31.5785 24.2052 31.4831 24.3958 31.2924L29.5747 26.1134C29.956 25.7321 29.956 25.1137 29.5747 24.7324C29.1933 24.3511 28.5751 24.351 28.1935 24.7324L23.7052 29.2209L21.8062 27.3219C21.4248 26.9407 20.8064 26.9406 20.4251 27.3219C20.0437 27.7033 20.0438 28.3216 20.4252 28.703L23.0147 31.2924Z" fill="#F2C94C"/>
<path fill-rule="evenodd" clip-rule="evenodd" d="M12.1867 39.302C12.7246 39.302 13.1633 38.8633 13.1633 38.3254C13.1633 37.7875 12.7246 37.3489 12.1867 37.3489C11.6488 37.3489 11.2101 37.7875 11.2101 38.3254C11.2101 38.8633 11.6488 39.302 12.1867 39.302Z" fill="#F2C94C"/>
<path fill-rule="evenodd" clip-rule="evenodd" d="M37.8135 15.16C37.2756 15.16 36.8369 15.5987 36.8369 16.1366C36.8369 16.6745 37.2756 17.1132 37.8135 17.1132C38.3513 17.1132 38.79 16.6745 38.79 16.1366C38.79 15.5987 38.3512 15.16 37.8135 15.16Z" fill="#F2C94C"/>
</svg>
