<svg width="50" height="50" viewBox="0 0 50 50" fill="none" xmlns="http://www.w3.org/2000/svg">
<path d="M7.20254 37.5142C5.67373 37.5142 4.42989 38.7584 4.42989 40.2878C4.42989 41.8172 5.67364 43.0614 7.20254 43.0614C8.73145 43.0614 9.9753 41.8172 9.9753 40.2878C9.9753 38.7584 8.73135 37.5142 7.20254 37.5142ZM7.20254 41.5966C6.48145 41.5966 5.89473 41.0094 5.89473 40.2878C5.89473 39.5662 6.48145 38.979 7.20254 38.979C7.92373 38.979 8.51045 39.5662 8.51045 40.2878C8.51045 41.0094 7.92373 41.5966 7.20254 41.5966Z" fill="#F2C94C"/>
<path d="M38.0516 43.0615C39.5804 43.0615 40.8242 41.8173 40.8242 40.2879C40.8242 38.7585 39.5805 37.5143 38.0516 37.5143C36.5227 37.5143 35.2788 38.7585 35.2788 40.2879C35.2788 41.8172 36.5227 43.0615 38.0516 43.0615ZM38.0516 38.979C38.7727 38.979 39.3594 39.5662 39.3594 40.2878C39.3594 41.0094 38.7727 41.5966 38.0516 41.5966C37.3304 41.5966 36.7437 41.0094 36.7437 40.2878C36.7437 39.5662 37.3304 38.979 38.0516 38.979Z" fill="#F2C94C"/>
<path d="M10.4117 38.5827C10.2737 38.7701 10.233 39.012 10.3021 39.2344C10.4074 39.574 10.4609 39.9283 10.4609 40.2878C10.4609 40.6472 10.4074 41.0017 10.302 41.3413C10.233 41.5636 10.2737 41.8055 10.4118 41.9929C10.5498 42.1803 10.7687 42.2909 11.0015 42.2909H34.2524C34.4852 42.2909 34.7041 42.1803 34.8421 41.9929C34.9802 41.8055 35.0209 41.5636 34.9519 41.3413C34.8465 41.0016 34.793 40.6472 34.793 40.2878C34.793 39.9283 34.8465 39.5739 34.9519 39.2344C35.0209 39.0121 34.9802 38.7701 34.8422 38.5827C34.7041 38.3953 34.4852 38.2847 34.2524 38.2847H11.0015C10.7689 38.2847 10.5498 38.3953 10.4117 38.5827ZM11.8973 39.7495H33.3569C33.3379 39.9277 33.3282 40.1073 33.3282 40.2878C33.3282 40.4683 33.3379 40.6479 33.3569 40.8261H11.8972C11.9162 40.6479 11.9259 40.4683 11.9259 40.2878C11.9259 40.1073 11.9163 39.9277 11.8973 39.7495Z" fill="#F2C94C"/>
<path d="M19.5832 27.5616C19.1786 27.5616 18.8508 27.8895 18.8508 28.2941C18.8508 28.6987 19.1786 29.0265 19.5832 29.0265H21.2877C21.6923 29.0265 22.0201 28.6987 22.0201 28.2941C22.0201 27.8895 21.6923 27.5616 21.2877 27.5616H19.5832Z" fill="#F2C94C"/>
<path d="M4.16844 30.1768C4.43953 30.1768 4.70018 30.0255 4.82713 29.7655L6.55633 26.2245C6.73377 25.861 6.58299 25.4225 6.21961 25.245C5.85603 25.0674 5.41746 25.2184 5.24012 25.5817L3.51092 29.1228C3.33348 29.4862 3.48426 29.9248 3.84764 30.1023C3.95105 30.1529 4.06053 30.1768 4.16844 30.1768Z" fill="#F2C94C"/>
<path d="M7.63241 30.1767C7.90351 30.1767 8.16415 30.0255 8.2911 29.7654L10.0204 26.2244C10.1978 25.8609 10.0472 25.4224 9.68368 25.2449C9.32001 25.0673 8.88153 25.2182 8.70419 25.5816L6.97489 29.1227C6.79745 29.4861 6.94814 29.9247 7.31161 30.1021C7.41513 30.1527 7.5246 30.1767 7.63241 30.1767Z" fill="#F2C94C"/>
<path d="M11.0967 30.1767C11.3678 30.1767 11.6284 30.0255 11.7554 29.7654L13.4847 26.2244C13.6621 25.8609 13.5114 25.4224 13.1479 25.2449C12.7844 25.0673 12.3459 25.2182 12.1684 25.5816L10.4391 29.1227C10.2617 29.4861 10.4124 29.9247 10.7759 30.1021C10.8793 30.1527 10.9888 30.1767 11.0967 30.1767Z" fill="#F2C94C"/>
<path d="M49.7324 26.004L47.9278 21.824C47.9186 21.8026 47.9082 21.7817 47.897 21.7613L44.8092 14.3844C44.653 14.0113 44.2236 13.8354 43.8509 13.9916C43.4777 14.1478 43.3019 14.5769 43.4581 14.9499L46.2965 21.7309L45.3265 22.1501L38.8399 9.6965L38.8398 9.69641L38.6964 9.42082L37.8381 7.77277C37.8373 7.77121 37.8367 7.76955 37.8359 7.76799C37.8155 7.72844 37.7977 7.6882 37.7818 7.64748C37.7767 7.634 37.7728 7.62023 37.7681 7.60666C37.7577 7.57688 37.7479 7.54699 37.7399 7.51662C37.7362 7.50227 37.7334 7.48781 37.7302 7.47336C37.7232 7.44211 37.7172 7.41076 37.7128 7.37902C37.711 7.36652 37.7097 7.35402 37.7084 7.34143C37.7047 7.30627 37.7024 7.27082 37.7019 7.23518C37.6994 7.08889 37.7226 6.94162 37.7747 6.79865C37.8926 6.4759 38.1324 6.22619 38.45 6.09543C39.062 5.84357 39.7682 6.13566 40.0239 6.7465L42.3163 12.223C42.4726 12.5962 42.9021 12.7721 43.2746 12.6157C43.6478 12.4596 43.8236 12.0305 43.6674 11.6574L41.375 6.18088C40.8094 4.82951 39.2471 4.18342 37.8925 4.74084C37.1999 5.0257 36.6555 5.5927 36.3985 6.29621C36.3493 6.43088 36.3116 6.56867 36.285 6.70783L25.1472 11.2904C24.9573 11.2635 24.7637 11.2487 24.5665 11.2487H21.6018C20.5548 11.2487 19.703 12.1007 19.703 13.148V16.2941H17.7365C16.8026 16.2941 16.0428 17.054 16.0428 17.9883V22.1483C16.0428 22.2747 15.94 22.3777 15.8139 22.3777H1.69375C0.759766 22.3778 0 23.1377 0 24.0719V25.8488C0 26.2534 0.327832 26.5813 0.732422 26.5813C1.13701 26.5813 1.46484 26.2534 1.46484 25.8488V24.0719C1.46484 23.9454 1.56758 23.8425 1.69375 23.8425H15.814C16.7479 23.8425 17.5077 23.0825 17.5077 22.1483V17.9883C17.5077 17.8618 17.6104 17.7589 17.7366 17.7589H20.4355H27.9558H28.4611C28.5682 17.7589 28.6638 17.8187 28.7108 17.9151L30.9376 22.4778C31.0012 22.6083 31.0349 22.7539 31.0349 22.899V31.7723C31.0349 31.9258 30.9103 32.0508 30.7569 32.0508H29.0922H15.3217H1.69375C1.56758 32.0508 1.46484 31.9479 1.46484 31.8214V28.7999C1.46484 28.3953 1.13701 28.0675 0.732422 28.0675C0.327832 28.0675 0 28.3953 0 28.7999V31.8214C0 32.7556 0.759766 33.5156 1.69375 33.5156H14.5894V35.1158H6.51387C3.66279 35.1158 1.34316 37.4354 1.34316 40.2887C1.34316 43.1398 3.6627 45.4594 6.51387 45.4594H38.7402C41.5913 45.4594 43.9109 43.1399 43.9109 40.2864C43.9109 37.4355 41.5914 35.1158 38.7402 35.1158H29.8246V33.5156H30.7569C31.7179 33.5156 32.4997 32.7336 32.4997 31.7723V22.899C32.4997 22.5326 32.4147 22.1649 32.254 21.8354L30.0272 17.2726C29.7707 16.7468 29.2602 16.3862 28.6882 16.3097V15.935L37.8824 11.029L43.9779 22.7327L37.1023 25.7041C36.6369 25.9054 36.3452 26.3452 36.341 26.8524C36.3368 27.3518 36.6281 27.8073 37.0833 28.0131L43.7031 31.0049C44.1284 31.1972 44.5808 31.2947 45.0476 31.2947C45.4955 31.2947 45.9312 31.2045 46.3425 31.0269L48.0298 30.2977C49.6824 29.5836 50.4462 27.6573 49.7324 26.004ZM16.0542 33.5157H28.3598V35.1159H28.3597H16.0542V33.5157ZM38.7401 36.5809C40.7835 36.5809 42.4461 38.2432 42.4461 40.2889C42.4461 42.3322 40.7837 43.9947 38.7402 43.9947H6.51387C4.47051 43.9947 2.80801 42.3323 2.80801 40.2866C2.80801 38.2433 4.47041 36.5809 6.51387 36.5809H15.3217H29.0921H38.7401ZM27.2229 15.372V15.4959V16.2944H21.168V16.2943V13.1482C21.168 12.9086 21.3626 12.7137 21.6019 12.7137H24.5666C24.7474 12.7137 24.9239 12.7321 25.0946 12.7666C25.161 12.78 25.2261 12.7966 25.2904 12.8149C25.3055 12.8192 25.3205 12.8232 25.3354 12.8277C25.3942 12.8454 25.4519 12.8654 25.5087 12.887C25.528 12.8944 25.5473 12.902 25.5663 12.9098C25.6199 12.9317 25.6728 12.9548 25.7245 12.98C25.7444 12.9897 25.7639 13.0001 25.7835 13.0103C25.8261 13.0322 25.8679 13.0553 25.909 13.0795C25.9327 13.0935 25.9562 13.1078 25.9794 13.1225C26.0193 13.1477 26.0585 13.1739 26.0969 13.2012C26.1144 13.2136 26.132 13.2256 26.1491 13.2384C26.1951 13.2727 26.2397 13.3087 26.2834 13.3458C26.2983 13.3585 26.3132 13.3713 26.3277 13.3843C26.3728 13.4243 26.4166 13.4656 26.4587 13.5086C26.4683 13.5184 26.4775 13.5284 26.487 13.5384C26.5327 13.5864 26.5773 13.6356 26.6193 13.6869C26.6198 13.6876 26.6203 13.6883 26.6209 13.6889C26.6672 13.7455 26.7112 13.8041 26.7527 13.8645C26.7535 13.8655 26.7543 13.8667 26.7551 13.8678C26.7965 13.928 26.8354 13.9902 26.8718 14.0538C26.8729 14.0559 26.8741 14.0578 26.8752 14.0598C27.0211 14.3161 27.1249 14.5982 27.1793 14.8955C27.1807 14.9031 27.182 14.9108 27.1834 14.9185C27.1953 14.9872 27.2046 15.0568 27.2111 15.127C27.212 15.1363 27.2125 15.1457 27.2133 15.1552C27.2191 15.2268 27.2229 15.2989 27.2229 15.3718V15.372H27.2229ZM28.5585 14.344C28.4145 13.7844 28.1548 13.2712 27.8079 12.8296C27.7992 12.8186 27.7907 12.8075 27.7819 12.7965C27.7559 12.764 27.7293 12.7321 27.7023 12.7004C27.6879 12.6834 27.6733 12.6666 27.6586 12.6499C27.6349 12.6231 27.611 12.5963 27.5867 12.57C27.566 12.5477 27.5448 12.5257 27.5236 12.5038C27.5035 12.483 27.4835 12.4621 27.4629 12.4417C27.4305 12.4095 27.3972 12.3781 27.3637 12.3471C27.353 12.3372 27.3428 12.3271 27.332 12.3173C27.244 12.2373 27.1526 12.1609 27.0577 12.0885L36.4368 8.22951C36.4394 8.23576 36.4428 8.24172 36.4454 8.24797C36.4739 8.31613 36.5045 8.38361 36.5389 8.44953L37.2058 9.73L28.5585 14.344ZM47.4486 28.9532L45.7613 29.6824C45.2984 29.8823 44.7662 29.878 44.3066 29.6704L38.1043 26.8673L45.2241 23.7905C45.2443 23.7837 45.2645 23.7766 45.2844 23.768L46.8737 23.0785L48.3876 26.5848C48.7813 27.4966 48.3601 28.5592 47.4486 28.9532Z" fill="#F2C94C"/>
<path d="M28.85 26.5854V26.5853C29.3695 26.5853 29.7922 26.1626 29.7922 25.643V23.1132C29.7922 22.9716 29.7594 22.8291 29.6967 22.6999L28.0038 19.231C27.8469 18.9096 27.5145 18.702 27.157 18.702H19.6756C19.156 18.702 18.7334 19.1248 18.7334 19.6443V23.0902C18.7334 23.34 18.8352 23.5842 19.0134 23.7605L21.597 26.3135C21.7744 26.4888 22.0096 26.5854 22.2591 26.5854H28.85ZM20.1982 22.8719V20.1668H26.8305L28.3273 23.2338V25.1205H22.4738L20.1982 22.8719Z" fill="#F2C94C"/>
</svg>
