<svg width="40" height="40" viewBox="0 0 40 40" fill="none" xmlns="http://www.w3.org/2000/svg">
<g clip-path="url(#clip0)">
<path d="M39.4408 5.67242L34.327 0.558592C33.5822 -0.186252 32.3701 -0.186174 31.6253 0.558592L21.9969 10.1869C21.7558 10.428 21.7558 10.8188 21.9969 11.06C22.238 11.301 22.6289 11.301 22.87 11.06L32.4983 1.43172C32.6259 1.30406 32.7956 1.23383 32.9761 1.23383C33.1565 1.23383 33.3262 1.30406 33.4539 1.43172L38.5678 6.54554C38.6954 6.67312 38.7657 6.84281 38.7657 7.02336C38.7657 7.20383 38.6954 7.37351 38.5678 7.50109L37.3128 8.75609L34.0246 5.46797C33.7835 5.22695 33.3926 5.22695 33.1515 5.46797C32.9104 5.70914 32.9104 6.09992 33.1515 6.34109L36.4397 9.62922L35.0058 11.063L33.5607 9.61789C33.3196 9.37687 32.9287 9.37687 32.6876 9.61789C32.4465 9.85906 32.4465 10.2498 32.6876 10.491L34.1328 11.9361L32.699 13.3699L31.2538 11.9248C31.0127 11.6837 30.6219 11.6837 30.3808 11.9248C30.1397 12.1659 30.1397 12.5567 30.3808 12.7979L31.8259 14.243L30.3921 15.6768L27.1039 12.3885C26.8629 12.1476 26.4719 12.1474 26.2308 12.3885C25.9897 12.6297 25.9897 13.0205 26.2308 13.2616L29.519 16.5498L28.0852 17.9837L26.6401 16.5385C26.399 16.2975 26.0081 16.2975 25.767 16.5385C25.5259 16.7797 25.5259 17.1705 25.767 17.4116L27.2121 18.8567L25.9991 20.0697L19.9297 14.0002L21.0586 12.8712C21.2997 12.6301 21.2997 12.2393 21.0586 11.9981C20.8175 11.7571 20.4266 11.7571 20.1855 11.9981L19.0565 13.1271L7.66842 1.73937C6.87639 0.947342 5.82334 0.51117 4.70326 0.51117C3.58318 0.511248 2.53014 0.94742 1.73818 1.73945C0.946074 2.53148 0.509902 3.58445 0.509902 4.70461C0.509902 5.82469 0.946074 6.87773 1.73811 7.66976L13.126 19.0577L0.559121 31.6248C-0.185723 32.3697 -0.185723 33.5816 0.559121 34.3266L5.67295 39.4405C6.03373 39.8013 6.5135 40 7.02381 40C7.53412 40 8.01389 39.8013 8.37467 39.4405L20.9417 26.8734L21.8368 27.7685C22.0779 28.0095 22.4687 28.0095 22.7098 27.7685C22.9509 27.5273 22.9509 27.1366 22.7098 26.8954L21.4744 25.6599C21.4504 25.622 21.4222 25.5859 21.3892 25.5528C21.3562 25.5198 21.3201 25.4916 21.2822 25.4677L7.90537 12.0909L9.56092 10.4353L10.5845 11.4589C10.7051 11.5794 10.863 11.6397 11.0211 11.6397C11.1791 11.6397 11.3371 11.5794 11.4576 11.4589C11.6987 11.2177 11.6987 10.827 11.4576 10.5858L10.4341 9.56226L12.0897 7.90672L18.6193 14.4363C18.6195 14.4366 18.6197 14.4369 18.6201 14.4372C18.6204 14.4375 18.6206 14.4377 18.6209 14.438L25.5022 21.3193C25.5193 21.3418 25.5374 21.3638 25.5579 21.3844C25.5785 21.4049 25.6004 21.423 25.6229 21.4401L34.7845 30.6016L33.129 32.2572L23.8855 23.0137C23.88 23.0077 23.875 23.0014 23.8691 22.9956L20.183 19.3095C20.1769 19.3034 20.1703 19.298 20.164 19.2923L13.6529 12.7812C13.4118 12.5402 13.0209 12.5402 12.7798 12.7812C12.5387 13.0223 12.5387 13.4131 12.7798 13.6543L32.2557 33.1302L30.6001 34.7857L24.7332 28.9187C24.4921 28.6777 24.1012 28.6777 23.8601 28.9187C23.619 29.1599 23.619 29.5507 23.8601 29.7919L30.1636 36.0953C30.2235 36.1552 30.2977 36.2036 30.3767 36.2342L37.8359 39.1302C37.9536 39.1759 38.0762 39.198 38.1979 39.198C38.459 39.198 38.7154 39.0959 38.9068 38.9044C39.1873 38.6237 39.2756 38.2034 39.1318 37.8335L36.2327 30.3777C36.2021 30.299 36.1537 30.2246 36.0939 30.1648L26.8721 20.943L39.4408 8.37422C40.1858 7.6293 40.1858 6.41734 39.4408 5.67242ZM20.0689 26.0004L18.8574 27.2116L17.4122 25.7664C17.1712 25.5254 16.7803 25.5254 16.5392 25.7664C16.2981 26.0076 16.2981 26.3984 16.5392 26.6395L17.9844 28.0847L16.5505 29.5185L13.2623 26.2303C13.0212 25.9893 12.6304 25.9893 12.3893 26.2303C12.1482 26.4715 12.1482 26.8623 12.3893 27.1034L15.6775 30.3916L14.2437 31.8255L12.7985 30.3803C12.5574 30.1393 12.1665 30.1393 11.9254 30.3803C11.6844 30.6215 11.6844 31.0123 11.9254 31.2534L13.3706 32.6985L11.9368 34.1323L10.4916 32.6872C10.2505 32.4462 9.85967 32.4462 9.61857 32.6872C9.37748 32.9284 9.37748 33.3191 9.61857 33.5603L11.0637 35.0055L9.6299 36.4393L6.3417 33.1511C6.10061 32.9101 5.70975 32.9101 5.46865 33.1511C5.22756 33.3923 5.22756 33.783 5.46865 34.0242L8.75686 37.3123L7.50186 38.5673C7.3742 38.695 7.20451 38.7653 7.02404 38.7653C6.84357 38.7653 6.67389 38.695 6.54623 38.5673L1.4324 33.4534C1.16896 33.19 1.16896 32.7613 1.4324 32.4979L13.9994 19.9309L20.0689 26.0004ZM2.61115 6.79672C1.45756 5.64312 1.45756 3.76609 2.61115 2.6125C3.76475 1.45883 5.64178 1.45883 6.79537 2.6125L8.74662 4.56375L4.5624 8.74797L2.61115 6.79672ZM9.12482 9.12523C9.12467 9.12539 9.12451 9.12547 9.12443 9.12562C9.12428 9.12578 9.1242 9.12594 9.12404 9.12601L7.03232 11.2177L5.43553 9.62094L9.61975 5.43672L11.2165 7.03351L9.12482 9.12523ZM37.7893 37.7876L31.7062 35.4259L35.425 31.7071L37.7893 37.7876Z" fill="#F2C94C"/>
</g>
<defs>
<clipPath id="clip0">
<rect width="40" height="40" fill="white"/>
</clipPath>
</defs>
</svg>
