<svg width="50" height="50" viewBox="0 0 50 50" fill="none" xmlns="http://www.w3.org/2000/svg">
<path d="M49.2676 17.7973H48.3822V16.9108C48.3822 16.5063 48.0544 16.1784 47.6498 16.1784C47.2452 16.1784 46.9174 16.5063 46.9174 16.9108V17.7973H46.032C45.6274 17.7973 45.2996 18.1251 45.2996 18.5297V20.9554C45.2996 20.9977 45.2652 21.0319 45.223 21.0319H39.5605C39.1559 21.0319 38.8281 21.3598 38.8281 21.7644V22.6497H37.9428C37.5382 22.6497 37.2103 22.9775 37.2103 23.3821C37.2103 23.7867 37.5382 24.1146 37.9428 24.1146H38.8281V25C38.8281 25.4046 39.1559 25.7324 39.5605 25.7324H45.2229C45.2652 25.7324 45.2995 25.7668 45.2995 25.8089V38.7516C45.2995 38.7938 45.2651 38.828 45.2229 38.828H30.6624C30.6202 38.828 30.5859 38.7937 30.5859 38.7516V34.707C30.5859 34.3024 30.2581 33.9746 29.8535 33.9746H28.9681V33.0893C28.9681 32.6847 28.6403 32.3568 28.2357 32.3568C27.8311 32.3568 27.5033 32.6847 27.5033 33.0893V33.9746H26.6179C26.2133 33.9746 25.8854 34.3024 25.8854 34.707V38.7517C25.8854 38.7938 25.8511 38.8281 25.809 38.8281H11.2484C11.2062 38.8281 11.172 38.7937 11.172 38.7517V25.8089C11.172 25.7667 11.2063 25.7324 11.2484 25.7324H25.809C25.8512 25.7324 25.8854 25.7668 25.8854 25.8089V28.2356C25.8854 28.6402 26.2133 28.9681 26.6179 28.9681H27.5033V29.8535C27.5033 30.2581 27.8311 30.5859 28.2357 30.5859C28.6403 30.5859 28.9681 30.2581 28.9681 29.8535V28.9681H29.8535C30.2581 28.9681 30.5859 28.6402 30.5859 28.2356V25.8089C30.5859 25.7667 30.6203 25.7324 30.6624 25.7324H33.0891C33.4937 25.7324 33.8216 25.4046 33.8216 25V24.1146H34.707C35.1116 24.1146 35.4394 23.7868 35.4394 23.3822C35.4394 22.9776 35.1116 22.6498 34.707 22.6498H33.8216V21.7645C33.8216 21.3599 33.4937 21.032 33.0891 21.032H30.6624C30.6202 21.032 30.5859 20.9977 30.5859 20.9555V18.5287C30.5859 18.1241 30.2581 17.7963 29.8535 17.7963H28.9681V16.9109C28.9681 16.5063 28.6403 16.1785 28.2357 16.1785C27.8311 16.1785 27.5033 16.5063 27.5033 16.9109V17.7963H26.6179C26.2133 17.7963 25.8854 18.1241 25.8854 18.5287V20.9555C25.8854 20.9978 25.8511 21.032 25.809 21.032H18.584C18.1794 21.032 17.8515 21.3599 17.8515 21.7645C17.8515 22.169 18.1794 22.4969 18.584 22.4969H25.8089C26.6588 22.4969 27.3502 21.8054 27.3502 20.9555V19.2611H29.1211V20.9555C29.1211 21.8054 29.8125 22.4969 30.6624 22.4969H32.3567V24.2676H30.6624C29.8125 24.2676 29.1211 24.959 29.1211 25.8089V27.5032H27.3502V25.8089C27.3502 24.959 26.6588 24.2676 25.8089 24.2676H11.2483C10.3984 24.2676 9.70702 24.959 9.70702 25.8089V38.7516C9.70702 39.6015 10.3984 40.2929 11.2483 40.2929H25.8089C26.6588 40.2929 27.3502 39.6015 27.3502 38.7516V35.4395H29.1211V38.7517C29.1211 39.6016 29.8125 40.293 30.6624 40.293H45.2229C46.0728 40.293 46.7643 39.6016 46.7643 38.7517V25.8089C46.7643 24.959 46.0728 24.2676 45.2229 24.2676H40.293V22.4968H45.2229C46.0728 22.4968 46.7643 21.8053 46.7643 20.9554V19.2621H48.5351V41.9873C48.5351 42.0295 48.5008 42.0638 48.4587 42.0638H8.01268C7.97049 42.0638 7.93621 42.0294 7.93621 41.9873V1.54131C7.93621 1.49912 7.97059 1.46484 8.01268 1.46484H39.7136C40.1181 1.46484 40.446 1.13701 40.446 0.732422C40.446 0.327832 40.1181 0 39.7136 0H8.01268C7.84452 0 7.68299 0.0280273 7.53133 0.0780273C7.4327 0.0285156 7.32166 0 7.20379 0H5.58592C5.18133 0 4.8535 0.327832 4.8535 0.732422C4.8535 1.13701 5.18133 1.46484 5.58592 1.46484H6.47518C6.47391 1.49033 6.47127 1.51553 6.47127 1.54131V41.9873C6.47127 42.0131 6.47391 42.0383 6.47518 42.0638H5.58592C5.18133 42.0638 4.8535 42.3916 4.8535 42.7962C4.8535 43.2008 5.18133 43.5286 5.58592 43.5286H6.47127V44.414C6.47127 44.8186 6.79911 45.1464 7.2037 45.1464C7.60829 45.1464 7.93612 44.8186 7.93612 44.414V43.5247C7.96161 43.526 7.9868 43.5286 8.01258 43.5286H48.4586C48.4844 43.5286 48.5096 43.526 48.535 43.5247V44.414C48.535 44.8186 48.8629 45.1464 49.2675 45.1464C49.6721 45.1464 49.9999 44.8186 49.9999 44.414V42.7962C49.9999 42.6782 49.9714 42.5673 49.9219 42.4686C49.9719 42.3169 49.9999 42.1554 49.9999 41.9872V18.5297C50 18.1252 49.6721 17.7973 49.2676 17.7973Z" fill="#F2C94C"/>
<path d="M48.4587 0H42.6433C42.2387 0 41.9108 0.327832 41.9108 0.732422C41.9108 1.13701 42.2387 1.46484 42.6433 1.46484H48.4587C48.5009 1.46484 48.5352 1.49922 48.5352 1.54131V11.3264H47.681C47.6705 11.326 47.6604 11.3248 47.6498 11.3248C47.6393 11.3248 47.629 11.326 47.6186 11.3264L46.7644 11.3265V4.77705C46.7644 3.92715 46.0729 3.23564 45.2229 3.23564H30.6624C29.8125 3.23564 29.1211 3.92715 29.1211 4.77705V11.3248H27.3502V4.77705C27.3502 3.92715 26.6588 3.23564 25.8089 3.23564H11.2483C10.3984 3.23564 9.70703 3.92715 9.70703 4.77705V20.9554C9.70703 21.8053 10.3984 22.4968 11.2483 22.4968H15.6543C16.0589 22.4968 16.3867 22.1689 16.3867 21.7644C16.3867 21.3598 16.0589 21.0319 15.6543 21.0319H11.2484C11.2062 21.0319 11.172 20.9976 11.172 20.9554V4.77705C11.172 4.73477 11.2063 4.70049 11.2484 4.70049H25.809C25.8512 4.70049 25.8854 4.73486 25.8854 4.77705V12.0572C25.8854 12.4618 26.2133 12.7896 26.6179 12.7896H27.5033V13.6751C27.5033 14.0797 27.8312 14.4075 28.2357 14.4075C28.6403 14.4075 28.9682 14.0797 28.9682 13.6751V12.7896H29.8535C30.2581 12.7896 30.5859 12.4618 30.5859 12.0572V4.77705C30.5859 4.73477 30.6203 4.70049 30.6624 4.70049H45.2229C45.2652 4.70049 45.2995 4.73486 45.2995 4.77705V12.0589C45.2995 12.2531 45.3767 12.4394 45.5141 12.5769C45.6514 12.7142 45.8376 12.7913 46.0319 12.7913H46.9173V13.6751C46.9173 14.0797 47.2451 14.4075 47.6497 14.4075C48.0543 14.4075 48.3821 14.0797 48.3821 13.6751V12.7913H49.2675C49.6721 12.7913 49.9999 12.4634 49.9999 12.0589V1.54131C50 0.691406 49.3086 0 48.4587 0V0Z" fill="#F2C94C"/>
<path d="M46.0319 45.2994C45.6273 45.2994 45.2995 45.6273 45.2995 46.0319V46.9172H11.172V46.032C11.172 45.6274 10.8441 45.2995 10.4395 45.2995C10.035 45.2995 9.70712 45.6274 9.70712 46.032V49.2676C9.70712 49.6722 10.035 50 10.4395 50C10.8441 50 11.172 49.6722 11.172 49.2676V48.3822H45.2996V49.2676C45.2996 49.6722 45.6274 50 46.032 50C46.4366 50 46.7645 49.6722 46.7645 49.2676V46.0319C46.7644 45.6274 46.4365 45.2994 46.0319 45.2994Z" fill="#F2C94C"/>
<path d="M0.732422 38.8281C0.327832 38.8281 0 39.1559 0 39.5605C0 39.9651 0.327832 40.2929 0.732422 40.2929H3.96816C4.37275 40.2929 4.70059 39.9651 4.70059 39.5605C4.70059 39.1559 4.37275 38.8281 3.96816 38.8281H3.08281V4.70044H3.96807C4.37266 4.70044 4.70049 4.37261 4.70049 3.96802C4.70049 3.56343 4.37266 3.2356 3.96807 3.2356H0.732422C0.327832 3.2356 0 3.56343 0 3.96802C0 4.37261 0.327832 4.70044 0.732422 4.70044H1.61787V38.8281H0.732422Z" fill="#F2C94C"/>
<path d="M0.732422 43.5287H2.35029C2.75488 43.5287 3.08271 43.2009 3.08271 42.7963C3.08271 42.3917 2.75488 42.0638 2.35029 42.0638H0.732422C0.327832 42.0638 0 42.3917 0 42.7963C0 43.2008 0.32793 43.5287 0.732422 43.5287Z" fill="#F2C94C"/>
<path d="M0.732422 1.46484H2.35029C2.75488 1.46484 3.08271 1.13701 3.08271 0.732422C3.08271 0.327832 2.75488 0 2.35039 0H0.732422C0.32793 0 0 0.32793 0 0.732422C0 1.13691 0.32793 1.46484 0.732422 1.46484Z" fill="#F2C94C"/>
<path d="M7.20381 46.9174C6.79922 46.9174 6.47139 47.2452 6.47139 47.6498V49.2676C6.47139 49.6721 6.79922 50 7.20381 50C7.6084 50 7.93623 49.6721 7.93623 49.2676V47.6498C7.93623 47.2452 7.6083 46.9174 7.20381 46.9174Z" fill="#F2C94C"/>
<path d="M49.2676 46.9174C48.863 46.9174 48.5352 47.2452 48.5352 47.6498V49.2676C48.5352 49.6721 48.863 50 49.2676 50C49.6722 50 50 49.6721 50 49.2676V47.6498C50 47.2452 49.6722 46.9174 49.2676 46.9174Z" fill="#F2C94C"/>
<path d="M4.48614 45.514C4.20001 45.2281 3.73633 45.2281 3.4503 45.514L2.3504 46.6139L1.25049 45.514C0.964362 45.2281 0.50069 45.2281 0.214655 45.514C-0.0713806 45.8001 -0.0713806 46.2638 0.214655 46.5499L1.31456 47.6498L0.214557 48.7497C-0.0714783 49.0358 -0.0714783 49.4995 0.214557 49.7855C0.357526 49.9286 0.545026 50.0001 0.732428 50.0001C0.91983 50.0001 1.10733 49.9286 1.2504 49.7856L2.3503 48.6857L3.4502 49.7856C3.59327 49.9286 3.78077 50.0001 3.96817 50.0001C4.15557 50.0001 4.34307 49.9286 4.48614 49.7856C4.77217 49.4995 4.77217 49.0358 4.48614 48.7498L3.38624 47.6499L4.48614 46.55C4.77208 46.2637 4.77208 45.8001 4.48614 45.514Z" fill="#F2C94C"/>
</svg>
