<svg width="40" height="40" viewBox="0 0 40 40" fill="none" xmlns="http://www.w3.org/2000/svg">
<path d="M39.9439 22.2644C39.9438 22.2643 39.9438 22.2642 39.9437 22.264L32.3915 3.30112C32.2312 2.89821 31.7745 2.70151 31.3716 2.86179C31.3713 2.86189 31.371 2.86199 31.3707 2.86219L0.732602 15.062C0.607655 15.116 0.499296 15.2022 0.418517 15.3117C0.163716 15.4441 0.00274824 15.7062 0 15.9933V36.4087C0 36.8424 0.351578 37.194 0.785211 37.194H33.7641C34.1977 37.194 34.5493 36.8424 34.5493 36.4087V25.2587L39.5055 23.2847C39.9083 23.1241 40.1045 22.6673 39.9439 22.2644ZM32.9788 35.6235H1.57042V16.7785H32.9788V35.6235ZM13.1012 15.212L26.2488 9.97306C27.4222 11.2064 29.0481 11.9074 30.7504 11.9141L32.0617 15.212H13.1012ZM34.5493 23.5721V15.9933C34.5493 15.5596 34.1977 15.2081 33.7641 15.2081H33.7515L32.0876 11.0292C32.0692 10.9943 32.0477 10.9611 32.0232 10.9302C31.939 10.552 31.5888 10.294 31.2027 10.3256C29.6187 10.47 28.0692 9.80276 27.0858 8.55261C26.8411 8.2506 26.4111 8.17551 26.0784 8.37672C26.0411 8.38114 26.0041 8.38801 25.9677 8.39714L9.91642 14.7888C9.72218 14.8649 9.56681 15.016 9.48534 15.2081H4.61076L31.2231 4.61164L38.195 22.1179L34.5493 23.5721Z" fill="#F2C94C"/>
<path d="M3.70127 30.3226C5.22575 30.7732 6.41868 31.9647 6.87116 33.4886C6.97039 33.8212 7.27633 34.0491 7.62339 34.0492C7.66412 34.0466 7.70456 34.0406 7.74431 34.0311C7.77955 34.0411 7.81557 34.0485 7.85189 34.0531H26.6969C26.7293 34.0489 26.7613 34.0423 26.7927 34.0335C27.185 34.1289 27.5804 33.8883 27.6759 33.496C27.6762 33.4945 27.6766 33.4932 27.6769 33.4917C28.1282 31.9662 29.3213 30.7731 30.8468 30.3218C31.2167 30.2087 31.4466 29.8401 31.3854 29.4581C31.3959 29.42 31.4035 29.3811 31.4082 29.3419V23.0602C31.4036 23.0208 31.3957 22.9819 31.3846 22.944C31.4462 22.5618 31.2162 22.193 30.846 22.0802C29.3205 21.629 28.1277 20.4354 27.6777 18.9095C27.564 18.5371 27.1917 18.3066 26.8077 18.3709C26.7713 18.3608 26.7343 18.3534 26.6969 18.3489H7.85189C7.81233 18.3536 7.77317 18.3615 7.73489 18.3725C7.35299 18.3116 6.98453 18.5414 6.87116 18.9111C6.41957 20.4363 5.22654 21.629 3.70127 22.0802C3.33133 22.1933 3.10146 22.5619 3.16261 22.944C3.1524 22.9821 3.14504 23.0209 3.14062 23.0602V29.3419C3.14514 29.3788 3.1525 29.4153 3.16261 29.451C3.09822 29.8355 3.32858 30.2082 3.70127 30.3226ZM4.71105 23.379C6.28775 22.7457 7.53741 21.496 8.17068 19.9193H26.3774C27.0109 21.496 28.2609 22.7457 29.8378 23.379V29.0231C28.2616 29.657 27.0121 30.9065 26.3781 32.4827H8.17068C7.53672 30.9065 6.28726 29.657 4.71105 29.0231V23.379Z" fill="#F2C94C"/>
<path d="M17.2747 30.9123C19.8767 30.9123 21.986 28.803 21.986 26.201C21.986 23.599 19.8767 21.4897 17.2747 21.4897C14.6727 21.4897 12.5635 23.599 12.5635 26.201C12.566 28.8019 14.6738 30.9097 17.2747 30.9123ZM17.2747 23.0602C19.0094 23.0602 20.4156 24.4664 20.4156 26.201C20.4156 27.9356 19.0094 29.3418 17.2747 29.3418C15.5401 29.3418 14.1339 27.9356 14.1339 26.201C14.1339 24.4664 15.5401 23.0602 17.2747 23.0602Z" fill="#F2C94C"/>
<path d="M8.63729 27.3788C9.28774 27.3788 9.8151 26.8514 9.8151 26.201C9.8151 25.5506 9.28774 25.0232 8.63729 25.0232C7.98684 25.0232 7.45947 25.5506 7.45947 26.201C7.45947 26.8515 7.98684 27.3788 8.63729 27.3788ZM8.63729 25.8084C8.8541 25.8084 9.02989 25.9842 9.02989 26.201C9.02989 26.4178 8.8541 26.5936 8.63729 26.5936C8.42047 26.5936 8.24468 26.4178 8.24468 26.201C8.24468 25.9842 8.42047 25.8084 8.63729 25.8084Z" fill="#F2C94C"/>
<path d="M25.9122 27.3788C26.5626 27.3788 27.09 26.8514 27.09 26.201C27.09 25.5506 26.5626 25.0232 25.9122 25.0232C25.2617 25.0232 24.7344 25.5506 24.7344 26.201C24.7344 26.8515 25.2617 27.3788 25.9122 27.3788ZM25.9122 25.8084C26.129 25.8084 26.3048 25.9842 26.3048 26.201C26.3048 26.4178 26.129 26.5936 25.9122 26.5936C25.6954 26.5936 25.5196 26.4178 25.5196 26.201C25.5196 25.9842 25.6954 25.8084 25.9122 25.8084Z" fill="#F2C94C"/>
</svg>
