<svg width="50" height="50" viewBox="0 0 50 50" fill="none" xmlns="http://www.w3.org/2000/svg">
<path d="M44.7273 2.4292H12.3956C9.58968 2.4292 7.30682 4.69071 7.30682 7.46146L7.09846 35.9312H0.788762C0.341599 35.9312 0 36.3266 0 36.7738V40.6919C0 44.3597 2.93522 47.3594 6.47773 47.5238V47.5709H33.7044V47.5179C33.9069 47.5262 34.0294 47.5709 34.1686 47.5709H34.188C37.9661 47.5488 41.0117 44.4692 40.9919 40.6911V15.7895H49.2112C49.6584 15.7895 50 15.3847 50 14.9379V7.74889C50.0051 4.82711 47.6491 2.45015 44.7273 2.4292V2.4292ZM6.83198 45.9515H6.82645C3.94618 45.9515 1.61943 43.5709 1.61943 40.6911V37.5507H27.3279V40.6776C27.3216 42.5003 28.0416 44.2502 29.3285 45.5407C29.4653 45.6783 29.6084 45.749 29.7547 45.9515H6.83198ZM39.3724 40.6903C39.3724 43.5709 37.0682 45.9515 34.1868 45.9515H34.1702C31.2745 45.9305 28.9406 43.5737 28.9474 40.678V36.7738C28.9497 36.3203 28.5911 35.947 28.1376 35.9312H8.71789L8.92625 7.467C8.92625 5.58385 10.4824 4.04863 12.3956 4.04863H40.9045C39.9817 5.06078 39.3724 6.34138 39.3724 7.77064V40.6903ZM48.3805 7.76313V14.1701H40.9919V7.76906C40.9919 5.74239 42.6777 4.04863 44.7036 4.04863H44.7261C46.7572 4.0688 48.39 5.72579 48.3805 7.7572V7.76313Z" fill="#F2C94C"/>
<path d="M19.0137 22.3598L23.1884 25.2139C23.4608 25.4017 23.821 25.4017 24.0934 25.2139L28.2555 22.3606C29.7013 21.3741 30.7692 19.3119 30.7692 17.5631V11.7884C30.7779 11.4832 30.6095 11.2001 30.3375 11.0613L23.9811 7.93471C23.7581 7.82401 23.4964 7.82401 23.2734 7.93471L16.9289 11.0526C16.6569 11.1914 16.4889 11.4745 16.498 11.7797V17.5631C16.498 19.3119 17.5682 21.3741 19.0137 22.3598ZM18.1174 12.285L23.6336 9.56324L29.1498 12.2925V17.5631C29.1498 18.7829 28.3504 20.3343 27.3418 21.0218L23.6241 23.5645L19.9211 21.0222C18.9125 20.3339 18.1174 18.7829 18.1174 17.5631V12.285Z" fill="#F2C94C"/>
<path d="M22.264 18.7856C22.4151 18.9397 22.6214 19.0271 22.8373 19.0283H22.8393C23.0544 19.0275 23.2604 18.9413 23.4118 18.7887L26.6329 15.5665C26.9496 15.2502 26.9496 14.737 26.6333 14.4207C26.3174 14.104 25.8042 14.104 25.4879 14.4203L22.8421 17.0657L21.7844 15.9978C21.4693 15.6799 20.9565 15.6776 20.6387 15.9927C20.3208 16.3078 20.3188 16.8206 20.6335 17.1384L22.264 18.7856Z" fill="#F2C94C"/>
<path d="M33.7045 27.5304H14.2713C13.8241 27.5304 13.4615 27.8929 13.4615 28.3401C13.4615 28.7873 13.8241 29.1498 14.2713 29.1498H33.7045C34.1516 29.1498 34.5142 28.7873 34.5142 28.3401C34.5142 27.8929 34.1516 27.5304 33.7045 27.5304Z" fill="#F2C94C"/>
<path d="M33.7045 31.2753H14.2713C13.8241 31.2753 13.4615 31.6378 13.4615 32.085C13.4615 32.5321 13.8241 32.8947 14.2713 32.8947H33.7045C34.1516 32.8947 34.5142 32.5321 34.5142 32.085C34.5142 31.6378 34.1516 31.2753 33.7045 31.2753Z" fill="#F2C94C"/>
</svg>
