<svg width="50" height="50" viewBox="0 0 50 50" fill="none" xmlns="http://www.w3.org/2000/svg">
<path d="M46.4998 22.594L45.205 17.4148C45.559 17.3396 45.8246 17.0255 45.8246 16.6492V15.8142C45.8246 14.0011 44.3495 12.5261 42.5365 12.5261H36.6389V10.8036C36.6389 9.91145 35.9131 9.18567 35.0209 9.18567H4.9582C4.06602 9.18567 3.34023 9.91145 3.34023 10.8036V24.9999C3.34023 25.4323 3.69072 25.7828 4.12314 25.7828C4.55547 25.7828 4.90605 25.4323 4.90605 24.9999V10.8036C4.90605 10.7748 4.92939 10.7515 4.9582 10.7515H35.0208C35.0496 10.7515 35.0729 10.7748 35.0729 10.8036V25.0001C35.0729 25.4324 35.4234 25.783 35.8559 25.783C36.2882 25.783 36.6388 25.4325 36.6388 25.0001V24.1126H45.874C45.8748 24.1126 45.8754 24.1128 45.8761 24.1128C45.8769 24.1128 45.8775 24.1127 45.8782 24.1127C47.0146 24.1135 47.9796 24.8594 48.311 25.8872H45.8767C45.4443 25.8872 45.0938 26.2377 45.0938 26.6701V28.3403C45.0938 29.6929 46.1941 30.7933 47.5468 30.7933H48.4341V34.2379H46.387C45.7146 32.2962 43.8687 30.8976 41.7013 30.8976C39.5338 30.8976 37.6879 32.2962 37.0155 34.2379H36.6386V28.3402C36.6386 27.9078 36.2881 27.5573 35.8557 27.5573C35.4233 27.5573 35.0728 27.9077 35.0728 28.3402V34.2377H18.8298C18.1573 32.296 16.3115 30.8974 14.144 30.8974C11.9766 30.8974 10.1307 32.296 9.4583 34.2377H4.9582C4.92939 34.2377 4.90605 34.2144 4.90605 34.1856V32.4632H8.29854C8.73086 32.4632 9.08145 32.1127 9.08145 31.6803C9.08145 31.2479 8.73096 30.8974 8.29854 30.8974H0.78291C0.350586 30.8974 0 31.2479 0 31.6803C0 32.1127 0.350488 32.4632 0.78291 32.4632H3.34033V34.1856C3.34033 35.0778 4.06611 35.8035 4.9583 35.8035H9.18721C9.18701 35.8209 9.18584 35.8382 9.18584 35.8557C9.18584 38.5897 11.4102 40.8139 14.144 40.8139C16.8779 40.8139 19.1022 38.5897 19.1022 35.8557C19.1022 35.8381 19.1011 35.8209 19.1009 35.8035H36.7444C36.7442 35.8209 36.7431 35.8382 36.7431 35.8557C36.7431 38.5897 38.9674 40.8139 41.7013 40.8139C44.4352 40.8139 46.6595 38.5897 46.6595 35.8557C46.6595 35.8381 46.6583 35.8209 46.6581 35.8035H49.217C49.6493 35.8035 49.9999 35.4531 49.9999 35.0206V26.6699C50 24.6082 48.4788 22.8952 46.4998 22.594ZM36.6389 14.0918H42.5365C43.4862 14.0918 44.2589 14.8645 44.2589 15.8142V15.8663H36.6389V14.0918ZM36.6389 22.5469V17.4321H43.5954L44.8741 22.5469H36.6389ZM14.144 39.2484C12.2734 39.2484 10.7516 37.7266 10.7516 35.8559C10.7516 33.9852 12.2734 32.4634 14.144 32.4634C16.0146 32.4634 17.5365 33.9852 17.5365 35.8559C17.5365 37.7266 16.0146 39.2484 14.144 39.2484ZM41.7015 39.2484C39.8309 39.2484 38.309 37.7266 38.309 35.8559C38.309 33.9852 39.8309 32.4634 41.7015 32.4634C43.5721 32.4634 45.0939 33.9852 45.0939 35.8559C45.0939 37.7266 43.5721 39.2484 41.7015 39.2484ZM48.4343 29.2275H47.547C47.0577 29.2275 46.6597 28.8294 46.6597 28.3402V27.4529H48.4342V29.2275H48.4343Z" fill="#F2C94C"/>
<path d="M14.144 34.238C13.2519 34.238 12.5261 34.9638 12.5261 35.856C12.5261 36.7482 13.2519 37.474 14.144 37.474C15.0362 37.474 15.762 36.7482 15.762 35.856C15.762 34.9638 15.0362 34.238 14.144 34.238Z" fill="#F2C94C"/>
<path d="M41.7015 34.238C40.8093 34.238 40.0835 34.9638 40.0835 35.856C40.0835 36.7482 40.8093 37.474 41.7015 37.474C42.5937 37.474 43.3194 36.7482 43.3194 35.856C43.3194 34.9638 42.5937 34.238 41.7015 34.238Z" fill="#F2C94C"/>
<path d="M32.5156 30.8977H20.8246C20.3923 30.8977 20.0417 31.2482 20.0417 31.6806C20.0417 32.113 20.3922 32.4635 20.8246 32.4635H32.5156C32.948 32.4635 33.2985 32.113 33.2985 31.6806C33.2985 31.2482 32.9481 30.8977 32.5156 30.8977Z" fill="#F2C94C"/>
<path d="M12.4739 27.5574H2.45303C2.02071 27.5574 1.67012 27.9079 1.67012 28.3403C1.67012 28.7727 2.02061 29.1232 2.45303 29.1232H12.4739C12.9062 29.1232 13.2568 28.7727 13.2568 28.3403C13.2568 27.9079 12.9062 27.5574 12.4739 27.5574Z" fill="#F2C94C"/>
<path d="M27.2237 16.9307C26.9181 16.625 26.4223 16.625 26.1166 16.9307L19.1545 23.8928L15.5327 20.271C15.2269 19.9652 14.7312 19.9652 14.4256 20.271C14.1198 20.5767 14.1198 21.0723 14.4256 21.3781L18.601 25.5535C18.7538 25.7064 18.9542 25.7828 19.1545 25.7828C19.3548 25.7828 19.5553 25.7064 19.708 25.5535L27.2236 18.0379C27.5294 17.732 27.5294 17.2364 27.2237 16.9307Z" fill="#F2C94C"/>
</svg>
